# ProBuilder 4.5.2
# https://unity3d.com/unity/features/worldbuilding/probuilder
# 2022-05-06 11:57:40 PM

mtllib ./TestGround.mtl
o TestGround

g Plane
v 3.36 -1.98 -1.55
v 3.36 -1.98 7.1086
v -3.570707 -1.98 -1.55
v -3.570707 -1.98 7.1086
v 3.36 -1.98 15.7672
v -3.570707 -1.98 15.7672
v 3.36 -1.98 24.4258
v -3.570707 -1.98 24.4258
v 3.36 -1.98 33.0844
v -3.570707 -1.98 33.0844
v 3.36 -1.98 54.993
v -3.570707 -1.98 54.993
v -10.50141 -1.98 -1.55
v -10.50141 -1.98 7.1086
v -10.50141 -1.98 15.7672
v -10.50141 -1.98 24.4258
v -10.50141 -1.98 33.0844
v -10.50141 -1.98 54.993
v -17.43212 -1.98 -1.55
v -17.43212 -1.98 7.1086
v -17.43212 -1.98 15.7672
v -17.43212 -1.98 24.4258
v -17.43212 -1.98 33.0844
v -17.43212 -1.98 54.993

vt 0 0
vt 0 6
vt 10 0
vt 10 6
vt 0 12
vt 10 12
vt 0 18
vt 10 18
vt 0 24
vt 10 24
vt 1.895084E-07 39.18162
vt 10 39.18162
vt 20 0
vt 20 6
vt 20 12
vt 20 18
vt 20 24
vt 20 39.18162
vt 30 0
vt 30 6
vt 30 12
vt 30 18
vt 30 24
vt 30 39.18162

vn 0 1 0

usemtl Lit
f 3/3/1 4/4/1 2/2/1 1/1/1
f 4/4/1 6/6/1 5/5/1 2/2/1
f 6/6/1 8/8/1 7/7/1 5/5/1
f 8/8/1 10/10/1 9/9/1 7/7/1
f 10/10/1 12/12/1 11/11/1 9/9/1
f 13/13/1 14/14/1 4/4/1 3/3/1
f 14/14/1 15/15/1 6/6/1 4/4/1
f 15/15/1 16/16/1 8/8/1 6/6/1
f 16/16/1 17/17/1 10/10/1 8/8/1
f 17/17/1 18/18/1 12/12/1 10/10/1
f 19/19/1 20/20/1 14/14/1 13/13/1
f 20/20/1 21/21/1 15/15/1 14/14/1
f 21/21/1 22/22/1 16/16/1 15/15/1
f 22/22/1 23/23/1 17/17/1 16/16/1
f 23/23/1 24/24/1 18/18/1 17/17/1

